<mxfile host="app.diagrams.net" modified="2023-05-09T11:21:42.952Z" agent="Mozilla/5.0 (Windows NT 10.0; Win64; x64; rv:109.0) Gecko/20100101 Firefox/112.0" version="21.2.9" etag="qfpgAEuUG5xtdUuFq8I9" type="github">
  <diagram name="Sivu-1" id="ye0muMC1FJOUXx1V9xmm">
    <mxGraphModel>
      <root>
        <mxCell id="0" />
        <mxCell id="1" parent="0" />
      </root>
    </mxGraphModel>
  </diagram>
</mxfile>
